<?xml version="1.0" encoding="UTF-8" standalone="no"?>
<!DOCTYPE svg PUBLIC "-//W3C//DTD SVG 1.1//EN" "http://www.w3.org/Graphics/SVG/1.1/DTD/svg11.dtd">
<svg width="100%" height="100%" viewBox="0 0 8000 4500" version="1.1" xmlns="http://www.w3.org/2000/svg" xmlns:xlink="http://www.w3.org/1999/xlink" xml:space="preserve" xmlns:serif="http://www.serif.com/" style="fill-rule:evenodd;clip-rule:evenodd;stroke-linejoin:round;stroke-miterlimit:2;">
    <g transform="matrix(4.16667,0,0,4.16667,-33868.1,-10063.9)">
        <g id="Prancheta1.4" transform="matrix(1,0,0,1,8128.33,2415.33)">
            <rect x="0" y="0" width="1920" height="1080" style="fill:none;"/>
            <g transform="matrix(0.959284,0,0,0.959284,41.3209,143.566)">
                <g transform="matrix(3.23758,0,0,3.23758,-1349.36,-1271.06)">
                    <path d="M875.183,539.994L886.892,539.994L918.467,518.977L918.467,513.023L886.892,492.006L875.183,492.006L875.183,497.754L902.152,516L875.183,534.246L875.183,539.994Z" style="fill:rgb(13,13,13);fill-rule:nonzero;"/>
                </g>
                <g transform="matrix(-3.23758,0,0,3.23758,3264.7,-1271.06)">
                    <path d="M875.183,539.994L886.892,539.994L918.467,518.977L918.467,513.023L886.892,492.006L875.183,492.006L875.183,497.754L902.152,516L875.183,534.246L875.183,539.994Z" style="fill:rgb(13,13,13);fill-rule:nonzero;"/>
                </g>
                <g transform="matrix(2.24198,0,0,2.24198,-566.528,-748.436)">
                    <g transform="matrix(1.48186,0,0,1.48186,-223.382,-260.203)">
                        <path d="M455.279,539.994L470.627,539.994L470.627,528.282L509.224,528.282L514.787,522.719L514.787,497.569L509.224,492.006L455.279,492.006L455.279,539.994ZM470.627,515.526L470.627,504.858L499.439,504.858L499.439,515.526L470.627,515.526Z" style="fill:rgb(13,13,13);fill-rule:nonzero;"/>
                    </g>
                    <g transform="matrix(1,0,0,1,20,0)">
                        <path d="M522.479,539.994L537.827,539.994L537.827,522.042L543.686,522.042L563.278,539.994L579.685,539.994L579.685,534.726L564.046,522.042L576.424,522.042L581.987,516.48L581.987,497.569L576.424,492.006L522.479,492.006L522.479,539.994ZM537.827,510.726L537.827,504.858L566.639,504.858L566.639,510.726L537.827,510.726Z" style="fill:rgb(13,13,13);fill-rule:nonzero;"/>
                    </g>
                    <g transform="matrix(1,0,0,1,20,0)">
                        <path d="M588.239,539.994L640.451,539.994L640.451,528.006L622.019,528.006L622.019,503.994L640.451,503.994L640.451,492.006L588.239,492.006L588.239,503.994L606.671,503.994L606.671,528.006L588.239,528.006L588.239,539.994Z" style="fill:rgb(13,13,13);fill-rule:nonzero;"/>
                    </g>
                    <g transform="matrix(1,0,0,1,20,0)">
                        <path d="M646.703,539.994L662.051,539.994L662.051,509.569L685.485,539.994L705.155,539.994L705.155,492.006L689.807,492.006L689.807,522.91L665.509,492.006L646.703,492.006L646.703,539.994Z" style="fill:rgb(13,13,13);fill-rule:nonzero;"/>
                    </g>
                    <g transform="matrix(1,0,0,1,20,0)">
                        <path d="M732.911,539.994L748.259,539.994L748.259,504.858L771.107,504.858L771.107,492.006L709.967,492.006L709.967,504.858L732.911,504.858L732.911,539.994Z" style="fill:rgb(13,13,13);fill-rule:nonzero;"/>
                    </g>
                    <g transform="matrix(1.57178,0,0,1.57178,-423.652,-281.317)">
                        <path d="M775.919,539.994L791.267,539.994L791.267,523.866L823.427,523.866L823.427,512.55L791.267,512.55L791.267,504.858L831.971,504.858L831.971,492.006L781.483,492.006L775.919,497.569L775.919,539.994Z" style="fill:rgb(13,13,13);fill-rule:nonzero;"/>
                    </g>
                    <g transform="matrix(1,0,0,1,39,0)">
                        <path d="M836.783,549.69L847.627,549.69L869.411,488.069L869.411,482.31L858.663,482.31L836.783,543.835L836.783,549.69Z" style="fill:rgb(13,13,13);fill-rule:nonzero;"/>
                    </g>
                </g>
            </g>
        </g>
    </g>
</svg>
