<?xml version="1.0" encoding="UTF-8" standalone="no"?><!DOCTYPE svg PUBLIC "-//W3C//DTD SVG 1.1//EN" "http://www.w3.org/Graphics/SVG/1.1/DTD/svg11.dtd"><svg width="100%" height="100%" viewBox="0 0 8000 4500" version="1.1" xmlns="http://www.w3.org/2000/svg" xmlns:xlink="http://www.w3.org/1999/xlink" xml:space="preserve" xmlns:serif="http://www.serif.com/" style="fill-rule:evenodd;clip-rule:evenodd;stroke-linejoin:round;stroke-miterlimit:2;"><rect id="Prancheta3" x="0" y="0" width="8000" height="4500" style="fill:none;"/><g><path d="M4881.4,2914.85l358.211,0.364l966.644,-641.999l0.185,-182.152l-965.335,-643.959l-358.21,-0.365l-0.179,175.85l824.49,559.042l-825.627,557.368l-0.179,175.851Z" style="fill:#0d0d0d;fill-rule:nonzero;"/><path d="M3640.08,2913.59l-358.21,-0.365l-965.335,-643.966l0.186,-182.153l966.644,-641.991l358.21,0.364l-0.179,175.85l-825.626,557.362l824.489,559.048l-0.179,175.851Z" style="fill:#0d0d0d;fill-rule:nonzero;"/><path d="M3848.83,3030.14l273.723,0.279l551.451,-1554.86l0.148,-145.375l-271.3,-0.276l-553.872,1552.44l-0.15,147.789Z" style="fill:#0d0d0d;fill-rule:nonzero;"/></g></svg>